<svg id="visual" viewBox="0 0 540 960" width="540" height="960" xmlns="http://www.w3.org/2000/svg" xmlns:xlink="http://www.w3.org/1999/xlink" version="1.1"><rect x="0" y="0" width="540" height="960" fill="#2A2B2E"></rect><path d="M0 699L49 731L98 738L147 738L196 707L245 733L295 723L344 711L393 740L442 697L491 714L540 712L540 961L491 961L442 961L393 961L344 961L295 961L245 961L196 961L147 961L98 961L49 961L0 961Z" fill="#708be5"></path><path d="M0 747L49 767L98 746L147 763L196 761L245 774L295 760L344 762L393 770L442 749L491 740L540 757L540 961L491 961L442 961L393 961L344 961L295 961L245 961L196 961L147 961L98 961L49 961L0 961Z" fill="#5c7ae0"></path><path d="M0 771L49 797L98 770L147 797L196 792L245 785L295 773L344 806L393 775L442 765L491 778L540 769L540 961L491 961L442 961L393 961L344 961L295 961L245 961L196 961L147 961L98 961L49 961L0 961Z" fill="#4768da"></path><path d="M0 810L49 818L98 813L147 839L196 840L245 820L295 814L344 839L393 810L442 836L491 804L540 807L540 961L491 961L442 961L393 961L344 961L295 961L245 961L196 961L147 961L98 961L49 961L0 961Z" fill="#2e57d3"></path><path d="M0 855L49 862L98 852L147 857L196 861L245 835L295 849L344 854L393 865L442 851L491 841L540 846L540 961L491 961L442 961L393 961L344 961L295 961L245 961L196 961L147 961L98 961L49 961L0 961Z" fill="#2750c0"></path><path d="M0 888L49 904L98 906L147 904L196 894L245 905L295 898L344 907L393 904L442 873L491 900L540 906L540 961L491 961L442 961L393 961L344 961L295 961L245 961L196 961L147 961L98 961L49 961L0 961Z" fill="#2248ad"></path><path d="M0 920L49 926L98 907L147 916L196 933L245 929L295 907L344 923L393 933L442 907L491 916L540 917L540 961L491 961L442 961L393 961L344 961L295 961L245 961L196 961L147 961L98 961L49 961L0 961Z" fill="#1d419b"></path></svg>