<svg id="visual" viewBox="0 0 900 600" width="900" height="600" xmlns="http://www.w3.org/2000/svg" xmlns:xlink="http://www.w3.org/1999/xlink" version="1.1"><rect x="0" y="0" width="900" height="600" fill="#2A2B2B"></rect><path d="M0 353L25 353.3C50 353.7 100 354.3 150 351.3C200 348.3 250 341.7 300 329.2C350 316.7 400 298.3 450 291.2C500 284 550 288 600 297.5C650 307 700 322 750 316.8C800 311.7 850 286.3 875 273.7L900 261L900 0L875 0C850 0 800 0 750 0C700 0 650 0 600 0C550 0 500 0 450 0C400 0 350 0 300 0C250 0 200 0 150 0C100 0 50 0 25 0L0 0Z" fill="#0d0d0d" stroke-linecap="round" stroke-linejoin="miter"></path></svg>